<?xml version="1.0" encoding="UTF-8" standalone="no"?>
<!DOCTYPE svg PUBLIC "-//W3C//DTD SVG 1.0//EN" "http://www.w3.org/TR/2001/PR-SVG-20010719/DTD/svg10.dtd">
<svg width="21cm" height="15cm" viewBox="-47 26 414 297" xmlns="http://www.w3.org/2000/svg" xmlns:xlink="http://www.w3.org/1999/xlink">
  <g>
    <ellipse style="fill: #ffffff; fill-opacity: 1" cx="50.0108" cy="118.967" rx="26.9239" ry="26.9239"/>
    <ellipse style="fill: none; stroke-opacity: 1; stroke-width: 2; stroke: #000000" cx="50.0108" cy="118.967" rx="26.9239" ry="26.9239"/>
    <rect style="fill: #000000; fill-opacity: 1" x="43.2799" y="98.7744" width="3.36549" height="10.0965"/>
    <rect style="fill: none; stroke-opacity: 1; stroke-width: 2; stroke: #000000" x="43.2799" y="98.7744" width="3.36549" height="10.0965"/>
    <rect style="fill: #000000; fill-opacity: 1" x="43.2799" y="113.919" width="3.36549" height="10.0965"/>
    <rect style="fill: none; stroke-opacity: 1; stroke-width: 2; stroke: #000000" x="43.2799" y="113.919" width="3.36549" height="10.0965"/>
    <rect style="fill: #000000; fill-opacity: 1" x="43.2799" y="129.064" width="3.36549" height="10.0965"/>
    <rect style="fill: none; stroke-opacity: 1; stroke-width: 2; stroke: #000000" x="43.2799" y="129.064" width="3.36549" height="10.0965"/>
    <polyline style="fill: none; stroke-opacity: 1; stroke-width: 2; stroke: #000000" points="9.625,135.795 39.9144,135.795 39.9144,102.14 "/>
    <polyline style="fill: none; stroke-opacity: 1; stroke-width: 2; stroke: #000000" points="46.6454,105.505 73.5693,105.505 73.5693,92.0434 "/>
    <line style="fill: none; stroke-opacity: 1; stroke-width: 2; stroke: #000000" x1="46.6454" y1="118.967" x2="87.0312" y2="118.967"/>
    <polyline style="fill: none; stroke-opacity: 1; stroke-width: 2; stroke: #000000" points="46.6454,132.429 73.5693,132.429 73.5693,145.891 "/>
    <polygon style="fill: #000000; fill-opacity: 1" points="66.8383,116.275 53.3763,118.967 66.8383,121.66 "/>
    <polygon style="fill: none; stroke-opacity: 1; stroke-width: 2; stroke: #000000" points="66.8383,116.275 53.3763,118.967 66.8383,121.66 "/>
  </g>
  <g>
    <rect style="fill: #ffffff; fill-opacity: 1" x="267.91" y="215.582" width="46.6454" height="76.582"/>
    <rect style="fill: none; stroke-opacity: 1; stroke-width: 2; stroke: #000000" x="267.91" y="215.582" width="46.6454" height="76.582"/>
    <rect style="fill: #000000; fill-opacity: 1" x="283.923" y="222.544" width="20.886" height="4.8734"/>
    <rect style="fill: none; stroke-opacity: 1; stroke-width: 0.2; stroke: #000000" x="283.923" y="222.544" width="20.886" height="4.8734"/>
    <rect style="fill: #000000; fill-opacity: 1" x="281.138" y="251.784" width="20.886" height="4.8734"/>
    <rect style="fill: none; stroke-opacity: 1; stroke-width: 0.2; stroke: #000000" x="281.138" y="251.784" width="20.886" height="4.8734"/>
    <rect style="fill: #000000; fill-opacity: 1" x="278.353" y="280.329" width="20.886" height="4.8734"/>
    <rect style="fill: none; stroke-opacity: 1; stroke-width: 0.2; stroke: #000000" x="278.353" y="280.329" width="20.886" height="4.8734"/>
    <rect style="fill: #000000; fill-opacity: 1" x="306.201" y="280.329" width="4.8734" height="4.8734"/>
    <rect style="fill: none; stroke-opacity: 1; stroke-width: 0.2; stroke: #000000" x="306.201" y="280.329" width="4.8734" height="4.8734"/>
    <polygon style="fill: #000000; fill-opacity: 1" points="278.353,229.506 283.226,229.506 281.138,250.392 276.264,250.392 "/>
    <polygon style="fill: none; stroke-opacity: 1; stroke-width: 0.2; stroke: #000000" points="278.353,229.506 283.226,229.506 281.138,250.392 276.264,250.392 "/>
    <polygon style="fill: #000000; fill-opacity: 1" points="304.809,229.506 309.682,229.506 307.593,250.392 302.72,250.392 "/>
    <polygon style="fill: none; stroke-opacity: 1; stroke-width: 0.2; stroke: #000000" points="304.809,229.506 309.682,229.506 307.593,250.392 302.72,250.392 "/>
    <polygon style="fill: #000000; fill-opacity: 1" points="275.568,258.05 280.442,258.05 278.353,278.936 273.48,278.936 "/>
    <polygon style="fill: none; stroke-opacity: 1; stroke-width: 0.2; stroke: #000000" points="275.568,258.05 280.442,258.05 278.353,278.936 273.48,278.936 "/>
    <polygon style="fill: #000000; fill-opacity: 1" points="302.024,258.05 306.897,258.05 304.809,278.936 299.935,278.936 "/>
    <polygon style="fill: none; stroke-opacity: 1; stroke-width: 0.2; stroke: #000000" points="302.024,258.05 306.897,258.05 304.809,278.936 299.935,278.936 "/>
  </g>
  <g>
    <ellipse style="fill: #ffffff; fill-opacity: 1" cx="212" cy="243.692" rx="24.4615" ry="24.4615"/>
    <ellipse style="fill: none; stroke-opacity: 1; stroke-width: 2; stroke: #000000" cx="212" cy="243.692" rx="24.4615" ry="24.4615"/>
    <rect style="fill: #000000; fill-opacity: 1" x="199.769" y="231.462" width="24.4615" height="3.66923"/>
    <rect style="fill: none; stroke-opacity: 1; stroke-width: 2; stroke: #000000" x="199.769" y="231.462" width="24.4615" height="3.66923"/>
    <path style="fill: #000000; fill-opacity: 1" d="M 212 249.808 C 219.338,249.808 223.008,253.477 225.454,257.146 C 224.231,258.369 224.231,258.369 223.008,259.592 C 219.338,255.923 218.115,253.477 212,253.477 C 205.885,253.477 204.661,255.923 200.992,259.592 C 199.769,258.369 199.769,258.369 198.546,257.146 C 200.992,253.477 204.661,249.808 212,249.808z"/>
    <path style="fill: none; stroke-opacity: 1; stroke-width: 2; stroke: #000000" d="M 212 249.808 C 219.338,249.808 223.008,253.477 225.454,257.146 C 224.231,258.369 224.231,258.369 223.008,259.592 C 219.338,255.923 218.115,253.477 212,253.477 C 205.885,253.477 204.661,255.923 200.992,259.592 C 199.769,258.369 199.769,258.369 198.546,257.146 C 200.992,253.477 204.661,249.808 212,249.808"/>
    <path style="fill: none; stroke-opacity: 1; stroke-width: 2; stroke: #000000" d="M 205.885 286.5 C 205.885,268.154 204.661,257.146 212,257.146 C 219.338,257.146 218.115,268.154 218.115,286.5"/>
    <line style="fill: none; stroke-opacity: 1; stroke-width: 2; stroke: #000000" x1="212" y1="207" x2="212" y2="231.462"/>
    <line style="fill: none; stroke-opacity: 1; stroke-width: 2; stroke: #000000" x1="175.308" y1="257.146" x2="198.546" y2="257.146"/>
  </g>
  <g>
    <polygon style="fill: #ffffff; fill-opacity: 1" points="-11,269.312 11.7502,269.312 23.1253,275 11.7502,280.687 -11,280.687 "/>
    <polygon style="fill: none; stroke-opacity: 1; stroke-width: 2; stroke: #000000" points="-11,269.312 11.7502,269.312 23.1253,275 11.7502,280.687 -11,280.687 "/>
    <line style="fill: none; stroke-opacity: 1; stroke-width: 2; stroke: #000000" x1="23.1253" y1="275" x2="34.5004" y2="275"/>
  </g>
  <polyline style="fill: none; stroke-opacity: 1; stroke-width: 2; stroke: #000000" points="205.884,286.5 205.884,299 34.5004,299 34.5004,275 "/>
  <g>
    <rect style="fill: #000000; fill-opacity: 1" x="207.564" y="319.371" width="20.8715" height="3.13072"/>
    <rect style="fill: none; stroke-opacity: 1; stroke-width: 2; stroke: #000000" x="207.564" y="319.371" width="20.8715" height="3.13072"/>
    <line style="fill: none; stroke-opacity: 1; stroke-width: 2; stroke: #000000" x1="218" y1="298.5" x2="218" y2="319.371"/>
  </g>
  <line style="fill: none; stroke-opacity: 1; stroke-width: 2; stroke: #000000" x1="218.116" y1="286.5" x2="218" y2="298.5"/>
  <g>
    <ellipse style="fill: #ffffff; fill-opacity: 1" cx="72.3579" cy="257.447" rx="2.96422" ry="2.96422"/>
    <ellipse style="fill: none; stroke-opacity: 1; stroke-width: 2; stroke: #000000" cx="72.3579" cy="257.447" rx="2.96422" ry="2.96422"/>
    <ellipse style="fill: #ffffff; fill-opacity: 1" cx="90.1432" cy="257.447" rx="2.96422" ry="2.96422"/>
    <ellipse style="fill: none; stroke-opacity: 1; stroke-width: 2; stroke: #000000" cx="90.1432" cy="257.447" rx="2.96422" ry="2.96422"/>
    <line style="fill: none; stroke-opacity: 1; stroke-width: 2; stroke: #000000" x1="69.3936" y1="257.447" x2="60.501" y2="257.447"/>
    <line style="fill: none; stroke-opacity: 1; stroke-width: 2; stroke: #000000" x1="93.1074" y1="257.447" x2="102" y2="257.447"/>
    <line style="fill: none; stroke-opacity: 1; stroke-width: 2; stroke: #000000" x1="69.3936" y1="251.518" x2="93.1074" y2="251.518"/>
    <line style="fill: none; stroke-opacity: 1; stroke-width: 2; stroke: #000000" x1="81.2505" y1="251.518" x2="81.2505" y2="245.59"/>
  </g>
  <g>
    <rect style="fill: #000000; fill-opacity: 1" x="138.831" y="244.666" width="4.11157" height="24.6694"/>
    <rect style="fill: none; stroke-opacity: 1; stroke-width: 2; stroke: #000000" x="138.831" y="244.666" width="4.11157" height="24.6694"/>
    <rect style="fill: #000000; fill-opacity: 1" x="147.054" y="244.666" width="4.11157" height="24.6694"/>
    <rect style="fill: none; stroke-opacity: 1; stroke-width: 2; stroke: #000000" x="147.054" y="244.666" width="4.11157" height="24.6694"/>
    <line style="fill: none; stroke-opacity: 1; stroke-width: 2; stroke: #000000" x1="138.831" y1="257.001" x2="126.496" y2="257.001"/>
    <line style="fill: none; stroke-opacity: 1; stroke-width: 2; stroke: #000000" x1="151.165" y1="257.001" x2="163.5" y2="257.001"/>
  </g>
  <line style="fill: none; stroke-opacity: 1; stroke-width: 2; stroke: #000000" x1="163.5" y1="257" x2="175.308" y2="257.146"/>
  <line style="fill: none; stroke-opacity: 1; stroke-width: 2; stroke: #000000" x1="34.5004" y1="256.688" x2="60.501" y2="257.446"/>
  <line style="fill: none; stroke-opacity: 1; stroke-width: 2; stroke: #000000" x1="102" y1="257.446" x2="126.496" y2="257"/>
  <polyline style="fill: none; stroke-opacity: 1; stroke-width: 2; stroke: #000000" points="161,236 131,276 121,276 "/>
  <g>
    <ellipse style="fill: #ffffff; fill-opacity: 1" cx="-15.0001" cy="135.667" rx="3.66667" ry="3.66667"/>
    <ellipse style="fill: none; stroke-opacity: 1; stroke-width: 2; stroke: #000000" cx="-15.0001" cy="135.667" rx="3.66667" ry="3.66667"/>
    <ellipse style="fill: #ffffff; fill-opacity: 1" cx="-15.0001" cy="172.333" rx="3.66667" ry="3.66667"/>
    <ellipse style="fill: none; stroke-opacity: 1; stroke-width: 2; stroke: #000000" cx="-15.0001" cy="172.333" rx="3.66667" ry="3.66667"/>
  </g>
  <line style="fill: none; stroke-opacity: 1; stroke-width: 2; stroke: #000000" x1="-15" y1="135.667" x2="9.625" y2="135.795"/>
  <g>
    <rect style="fill: #ffffff; fill-opacity: 1" x="120.333" y="40.9999" width="53.3332" height="13.3333"/>
    <rect style="fill: none; stroke-opacity: 1; stroke-width: 2; stroke: #000000" x="120.333" y="40.9999" width="53.3332" height="13.3333"/>
    <line style="fill: none; stroke-opacity: 1; stroke-width: 2; stroke: #000000" x1="120.333" y1="47.6666" x2="107" y2="47.6666"/>
    <line style="fill: none; stroke-opacity: 1; stroke-width: 2; stroke: #000000" x1="173.666" y1="47.6666" x2="187" y2="47.6666"/>
    <polyline style="fill: none; stroke-opacity: 1; stroke-width: 2; stroke: #000000" points="107,27.6666 147,27.6666 147,40.9999 "/>
    <polygon style="fill: #000000; fill-opacity: 1" points="144.333,31.6666 147,40.9999 149.667,31.6666 "/>
    <polygon style="fill: none; stroke-opacity: 1; stroke-width: 2; stroke: #000000" points="144.333,31.6666 147,40.9999 149.667,31.6666 "/>
  </g>
  <polyline style="fill: none; stroke-opacity: 1; stroke-width: 2; stroke: #000000" points="73.5692,92.0434 73.5692,48 107,48 107,48 "/>
  <polyline style="fill: none; stroke-opacity: 1; stroke-width: 2; stroke: #000000" points="73.48,52.0002 73.48,28 107,28 107,28 "/>
  <g>
    <rect style="fill: #ffffff; fill-opacity: 1" x="125.857" y="91.8572" width="34.2858" height="34.2858"/>
    <rect style="fill: none; stroke-opacity: 1; stroke-width: 2; stroke: #000000" x="125.857" y="91.8572" width="34.2858" height="34.2858"/>
    <line style="fill: none; stroke-opacity: 1; stroke-width: 2; stroke: #000000" x1="160.143" y1="98.7144" x2="167" y2="98.7144"/>
    <line style="fill: none; stroke-opacity: 1; stroke-width: 2; stroke: #000000" x1="160.143" y1="119.286" x2="167" y2="119.286"/>
    <line style="fill: none; stroke-opacity: 1; stroke-width: 2; stroke: #000000" x1="125.857" y1="98.7144" x2="119" y2="98.7144"/>
    <line style="fill: none; stroke-opacity: 1; stroke-width: 2; stroke: #000000" x1="125.857" y1="119.286" x2="119" y2="119.286"/>
  </g>
  <line style="fill: none; stroke-opacity: 1; stroke-width: 2; stroke: #000000" x1="-15" y1="172.333" x2="348" y2="172.38"/>
  <text font-size="12.8" style="fill: #000000; fill-opacity: 1;text-anchor:middle;font-family:monospace;font-style:normal;font-weight:normal" x="-35" y="159">
    <tspan x="-35" y="159">15V</tspan>
  </text>
  <line style="fill: none; stroke-opacity: 1; stroke-width: 2; stroke: #000000" x1="73.5692" y1="145.891" x2="73.48" y2="172"/>
  <g>
    <rect style="fill: #000000; fill-opacity: 1" x="297.714" y="70.5714" width="2.85714" height="22.8571"/>
    <rect style="fill: none; stroke-opacity: 1; stroke-width: 2; stroke: #000000" x="297.714" y="70.5714" width="2.85714" height="22.8571"/>
    <line style="fill: none; stroke-opacity: 1; stroke-width: 2; stroke: #000000" x1="300.571" y1="82" x2="312" y2="82"/>
    <line style="fill: none; stroke-opacity: 1; stroke-width: 2; stroke: #000000" x1="297.714" y1="82" x2="272" y2="62"/>
    <line style="fill: none; stroke-opacity: 1; stroke-width: 2; stroke: #000000" x1="297.714" y1="82" x2="272" y2="102"/>
    <polygon style="fill: #000000; fill-opacity: 1" points="291.429,84.2857 297.714,82 293.714,88.2857 "/>
    <polygon style="fill: none; stroke-opacity: 1; stroke-width: 2; stroke: #000000" points="291.429,84.2857 297.714,82 293.714,88.2857 "/>
  </g>
  <line style="fill: none; stroke-opacity: 1; stroke-width: 2; stroke: #000000" x1="87.0312" y1="118.967" x2="119" y2="119.286"/>
  <g>
    <ellipse style="fill: #ffffff; fill-opacity: 1" cx="96" cy="99" rx="4" ry="4"/>
    <ellipse style="fill: none; stroke-opacity: 1; stroke-width: 2; stroke: #000000" cx="96" cy="99" rx="4" ry="4"/>
  </g>
  <line style="fill: none; stroke-opacity: 1; stroke-width: 2; stroke: #000000" x1="96" y1="99" x2="119" y2="98.7142"/>
  <polyline style="fill: none; stroke-opacity: 1; stroke-width: 2; stroke: #000000" points="167,119.286 167,119 191,119 191,172 "/>
  <g>
    <ellipse style="fill: #ffffff; fill-opacity: 1" cx="228" cy="142" rx="15" ry="15"/>
    <ellipse style="fill: none; stroke-opacity: 1; stroke-width: 2; stroke: #000000" cx="228" cy="142" rx="15" ry="15"/>
    <line style="fill: none; stroke-opacity: 1; stroke-width: 2; stroke: #000000" x1="228" y1="127" x2="228" y2="112"/>
    <line style="fill: none; stroke-opacity: 1; stroke-width: 2; stroke: #000000" x1="228" y1="157" x2="228" y2="172"/>
    <line style="fill: none; stroke-opacity: 1; stroke-width: 2; stroke: #000000" x1="222.375" y1="134.5" x2="228" y2="149.5"/>
    <line style="fill: none; stroke-opacity: 1; stroke-width: 2; stroke: #000000" x1="228" y1="149.5" x2="233.625" y2="134.5"/>
  </g>
  <polyline style="fill: none; stroke-opacity: 1; stroke-width: 2; stroke: #000000" points="167,98.7142 167,99 228,99 228,112 "/>
  <g>
    <ellipse style="fill: none; stroke-opacity: 1; stroke-width: 2; stroke: #000000" cx="285.365" cy="83.1361" rx="24.3629" ry="24.3629"/>
    <line style="fill: none; stroke-opacity: 1; stroke-width: 2; stroke: #000000" x1="303.637" y1="58.7732" x2="321.909" y2="40.501"/>
    <line style="fill: none; stroke-opacity: 1; stroke-width: 2; stroke: #000000" x1="309.728" y1="64.8639" x2="328" y2="46.5917"/>
    <polygon style="fill: #000000; fill-opacity: 1" points="307.901,50.2462 303.637,58.7732 311.555,53.9006 "/>
    <polygon style="fill: none; stroke-opacity: 1; stroke-width: 2; stroke: #000000" points="307.901,50.2462 303.637,58.7732 311.555,53.9006 "/>
    <polygon style="fill: #000000; fill-opacity: 1" points="313.991,56.3369 309.728,64.8639 317.646,59.9913 "/>
    <polygon style="fill: none; stroke-opacity: 1; stroke-width: 2; stroke: #000000" points="313.991,56.3369 309.728,64.8639 317.646,59.9913 "/>
  </g>
  <polyline style="fill: none; stroke-opacity: 1; stroke-width: 2; stroke: #000000" points="187,48 187,48 272,48 272,62 "/>
  <g>
    <ellipse style="fill: #ffffff; fill-opacity: 1" cx="348" cy="136.18" rx="3.62003" ry="3.62003"/>
    <ellipse style="fill: none; stroke-opacity: 1; stroke-width: 2; stroke: #000000" cx="348" cy="136.18" rx="3.62003" ry="3.62003"/>
    <ellipse style="fill: #ffffff; fill-opacity: 1" cx="348" cy="172.38" rx="3.62003" ry="3.62003"/>
    <ellipse style="fill: none; stroke-opacity: 1; stroke-width: 2; stroke: #000000" cx="348" cy="172.38" rx="3.62003" ry="3.62003"/>
  </g>
  <polyline style="fill: none; stroke-opacity: 1; stroke-width: 2; stroke: #000000" points="312,82 312,82 348,82 348,136.18 "/>
  <g>
    <polygon style="fill: #ffffff; fill-opacity: 1" points="273.001,143.261 281.498,160.255 264.504,160.255 "/>
    <polygon style="fill: none; stroke-opacity: 1; stroke-width: 2; stroke: #000000" points="273.001,143.261 281.498,160.255 264.504,160.255 "/>
    <line style="fill: none; stroke-opacity: 1; stroke-width: 2; stroke: #000000" x1="264.504" y1="143.261" x2="281.498" y2="143.261"/>
    <line style="fill: none; stroke-opacity: 1; stroke-width: 2; stroke: #000000" x1="273.001" y1="130.516" x2="273.001" y2="173"/>
    <line style="fill: none; stroke-opacity: 1; stroke-width: 2; stroke: #000000" x1="281.498" y1="139.012" x2="281.498" y2="147.509"/>
    <line style="fill: none; stroke-opacity: 1; stroke-width: 2; stroke: #000000" x1="264.504" y1="147.509" x2="264.504" y2="139.012"/>
  </g>
  <line style="fill: none; stroke-opacity: 1; stroke-width: 2; stroke: #000000" x1="272" y1="102" x2="273" y2="130.516"/>
  <g>
    <polygon style="fill: #ffffff; fill-opacity: 1" points="-11,251 11.7502,251 23.1253,256.688 11.7502,262.375 -11,262.375 "/>
    <polygon style="fill: none; stroke-opacity: 1; stroke-width: 2; stroke: #000000" points="-11,251 11.7502,251 23.1253,256.688 11.7502,262.375 -11,262.375 "/>
    <line style="fill: none; stroke-opacity: 1; stroke-width: 2; stroke: #000000" x1="23.1253" y1="256.688" x2="34.5004" y2="256.688"/>
  </g>
</svg>
